# xmcd
#
# Track frame offsets:
#	150
#	15640
#	29642
#	44307
#	63775
#	84525
#	102645
#	117850
#	132432
#	152270
#	168570
#
# Disc length: 2477 seconds
#
# Revision: 0
# Processed by: cddbd v1.4PL0 Copyright (c) Steve Scherf et al.
# Submitted via: dBpowerAMP V4.0
#
DISCID=8a09ab0b
DTITLE=Los Chavis - "hasta q amanezca"
DYEAR=1993
DGENRE=Other
TTITLE0=Hasta que amanezca
TTITLE1=Un mundo de fantasia
TTITLE2=Maldigo el dia
TTITLE3=Soñe
TTITLE4=Mañana fria de invierno
TTITLE5=Vivir asi, es morir de amor
TTITLE6=Me equivoque
TTITLE7=Ella
TTITLE8=Tu querer me domina
TTITLE9=Tengo que decirle
TTITLE10=Mira como te ves
EXTD=
EXTT0=
EXTT1=
EXTT2=
EXTT3=
EXTT4=
EXTT5=
EXTT6=
EXTT7=
EXTT8=
EXTT9=
EXTT10=
PLAYORDER=
